# xmcd CD database file
#
# Track frame offsets:
#	150
#	15881
#	35132
#	54039
#	67881
#	83420
#	102712
#	118345
#	132887
#	151254
#	166411
#	187610
#
# Disc length: 2704 seconds
#
# Revision: 2
# Processed by: cddbd v1.5PL3 Copyright (c) Steve Scherf et al.
# Submitted via: CDex 1.50Beta7
#
DISCID=890a8e0c
DTITLE=Gilberto Alves and Fernando - Eu amo te amar
DYEAR=2004
DGENRE=Country
TTITLE0=Me diz pra quê?
TTITLE1=Vem consolar meu coração
TTITLE2=Volte por favor
TTITLE3=Saudade e paixão
TTITLE4=Vou te dar cartão
TTITLE5=Sede de amar
TTITLE6=Minha vida
TTITLE7=Sou cowboy
TTITLE8=Saudades de você
TTITLE9=Cowboy do asfalto
TTITLE10=Eu amo te amar
TTITLE11=Voltando pro meu lugar
EXTD=YEAR: 2004
EXTT0=
EXTT1=
EXTT2=
EXTT3=
EXTT4=
EXTT5=
EXTT6=
EXTT7=
EXTT8=
EXTT9=
EXTT10=
EXTT11=
PLAYORDER=
